<svg width="314" height="37" viewBox="0 0 314 37" fill="none" xmlns="http://www.w3.org/2000/svg">
<path d="M135.402 36.9368L147.784 0H157.905L170.287 36.9368H161.984L157.414 22.7075H148.226L143.657 36.9368H135.402ZM148.226 22.7075H157.414L151.813 5.25544H153.877L148.226 22.7075Z" fill="white"/>
<path d="M151.135 2.73608H154.555V9.23423H151.135V2.73608Z" fill="white"/>
<path d="M196.963 3.20536e-06L184.581 36.9368L174.46 36.9368L162.078 1.55633e-07L170.382 8.81554e-07L174.951 14.2294L184.139 14.2294L188.708 2.48373e-06L196.963 3.20536e-06ZM184.139 14.2294L174.951 14.2294L180.552 31.6814L178.489 31.6814L184.139 14.2294Z" fill="white"/>
<rect x="177.812" y="28.0446" width="3.42008" height="6.15614" fill="white"/>
<path d="M267 37C270.824 37 271.711 37 275.535 37L281.767 18.5L288 7.14697e-08L279.968 7.73671e-07L275.302 13.6849L267 37Z" fill="white"/>
<path d="M266 37C269.824 37 270.711 37 274.535 37L280.767 18.5L287 7.14697e-08L278.968 7.73671e-07L274.302 13.6849L266 37Z" fill="white"/>
<path d="M188 37C191.782 37 192.66 37 196.442 37L202.835 18.5L209 7.14697e-08L201.055 7.66065e-07L196.44 13.6849L188 37Z" fill="white"/>
<path d="M124 37C127.641 37 128.487 37 132.128 37L144 1.58892e-07L136.35 8.27656e-07L131.907 13.6849L124 37Z" fill="white"/>
<path d="M113 37C116.637 37 117.481 37 121.119 37L133 1.58892e-07L125.359 8.26865e-07L120.805 14.1918L113 37Z" fill="white"/>
<path d="M228.221 37L240.624 0H250.762L263.165 37H254.847L250.27 22.7463H241.066L236.489 37H228.221ZM241.066 22.7463H250.27L244.659 5.26443H246.726L241.066 22.7463Z" fill="white"/>
<path d="M243.98 2.74072H247.406V9.24998H243.98V2.74072Z" fill="white"/>
<path d="M278.682 37L291.084 0H301.223L313.626 37H305.308L300.731 22.7463H291.527L286.95 37H278.682ZM291.527 22.7463H300.731L295.12 5.26443H297.187L291.527 22.7463Z" fill="white"/>
<path d="M294.441 2.74072H297.867V9.24998H294.441V2.74072Z" fill="white"/>
<path d="M279 37L291.403 0H301.542L313.944 37H305.627L301.049 22.7463H291.846L287.269 37H279ZM291.846 22.7463H301.049L295.439 5.26443H297.506L291.846 22.7463Z" fill="white"/>
<path d="M294.76 2.74072H298.186V9.24998H294.76V2.74072Z" fill="white"/>
<path d="M38 37V0H46.1176V28.7778H61V37H38Z" fill="white"/>
<path d="M0 37L12.4028 0H22.5416L34.9444 37H26.6267L22.0495 22.7463H12.8458L8.26854 37H0ZM12.8458 22.7463H22.0495L16.4387 5.26443H18.5058L12.8458 22.7463Z" fill="white"/>
<path d="M15.7598 2.74072H19.1857V9.24998H15.7598V2.74072Z" fill="white"/>
<path d="M100 37V0H109V37H100Z" fill="white"/>
<path d="M64 37V0H76.15C80.1833 0 83.6833 0.794634 86.65 2.3839C89.6167 3.97316 91.9167 6.15839 93.55 8.9396C95.1833 11.7208 96 14.8993 96 18.4752C96 22.051 95.1833 25.2461 93.55 28.0604C91.9167 30.8416 89.6167 33.0268 86.65 34.6161C83.6833 36.2054 80.1833 37 76.15 37H64ZM71.75 30.2953H76.35C78.7833 30.2953 80.8833 29.8152 82.65 28.855C84.4167 27.8617 85.7833 26.4877 86.75 24.7329C87.75 22.945 88.25 20.8591 88.25 18.4752C88.25 16.0582 87.75 13.9723 86.75 12.2175C85.7833 10.4626 84.4167 9.10515 82.65 8.14497C80.8833 7.18479 78.7833 6.7047 76.35 6.7047H71.75V30.2953Z" fill="white"/>
<path d="M202 31H227L224.5 37H200L202 31Z" fill="white"/>
</svg>
